<svg width="367" height="367" viewBox="0 0 367 367" fill="none" xmlns="http://www.w3.org/2000/svg">
<rect width="366.977" height="366.977" rx="100" fill="black"/>
<path d="M208.086 92.8181C221.366 83.1999 238.555 72.0307 252.189 81.1405C265.244 89.8638 276.539 101.015 285.428 113.949C294.933 127.779 283.217 145.477 273.319 159.029C268.301 165.899 265.339 174.366 265.339 183.525C265.339 192.711 268.318 201.201 273.362 208.081C283.285 221.615 295.033 239.291 285.552 253.139C277.07 265.528 266.383 276.288 254.056 284.855C240.077 294.57 222.089 282.446 208.393 272.335C201.493 267.24 192.961 264.229 183.725 264.229C174.517 264.229 166.009 267.222 159.119 272.288C145.404 282.374 127.393 294.464 113.432 284.723C101.159 276.159 90.5184 265.417 82.0707 253.058C72.6161 239.226 84.3227 221.584 94.2239 208.068C99.2624 201.19 102.237 192.705 102.237 183.525C102.237 174.372 99.2795 165.909 94.2673 159.042C84.3899 145.508 72.7146 127.845 82.1934 114.029C91.0479 101.123 102.296 89.9889 115.299 81.2659C128.916 72.1304 146.127 83.2685 159.425 92.8626C166.26 97.7937 174.653 100.699 183.725 100.699C192.824 100.699 201.24 97.7762 208.086 92.8181ZM183.839 130.62C154.561 130.62 130.825 154.355 130.825 183.634C130.825 212.912 154.561 236.646 183.839 236.646C213.117 236.646 236.852 212.912 236.852 183.634C236.852 154.355 213.117 130.62 183.839 130.62Z" fill="white"/>
</svg>
